# xmcd
#
# Track frame offsets: 
#        150
#        11610
#        30599
#        50600
#        66542
#        95034
#        107290
#        127716
#        152097
#
# Disc length: 2312 seconds
#
# Revision: 0
# Processed by: cddbd v1.5.2PL0 Copyright (c) Steve Scherf et al.
# Submitted via: ExactAudioCopy v1.3
#
DISCID=6c090609
DTITLE=Jack Teagarden - Jazz Maverick WPCR-29161
DYEAR=1900
DGENRE=Jazz
TTITLE0=Ever Lovin' Baby
TTITLE1=Aunt Hager's Country Home
TTITLE2=High Society
TTITLE3=Blue Dawn
TTITLE4=Riverboat Shuffle
TTITLE5=Roundtable Romp
TTITLE6=Ain't 'Cha Glad
TTITLE7=A Hundred Years From Today
TTITLE8=Tin Roof Blues
EXTD=
EXTT0=
EXTT1=
EXTT2=
EXTT3=
EXTT4=
EXTT5=
EXTT6=
EXTT7=
EXTT8=
PLAYORDER=
